<?xml version="1.0" encoding="UTF-8"?>
<svg id="Layer_1" data-name="Layer 1" xmlns="http://www.w3.org/2000/svg" viewBox="0 0 250 250">
  <defs>
    <style>
      .cls-1 {
        fill: #fff;
      }
    </style>
  </defs>
  <path class="cls-1" d="M171.71,242.03h-29.13c-6.08-15.62-16.03-41.36-17.79-47.41h-.42c-1.11,5.95-10.33,31.83-15.98,47.41h-30.11l31.49-74.98h30.45l31.49,74.98Z"/>
  <path class="cls-1" d="M95.91,159.05l-49.2,64.76-14.56-25.23c10.48-13.07,27.79-34.55,32.16-39.11l-.21-.36c-5.7,2.02-32.72,6.97-49.05,9.87L0,142.89l80.68-10.22,15.22,26.37Z"/>
  <path class="cls-1" d="M95.91,90.29l-15.22,26.37L0,106.44l14.56-25.23c16.56,2.55,43.83,6.8,49.96,8.3l.2-.35c-4.59-3.94-22.4-24.87-33.07-37.55l15.05-26.08,49.2,64.76Z"/>
  <circle class="cls-1" cx="125" cy="124.67" r="27.11"/>
  <path class="cls-1" d="M171.71,7.3l-31.49,74.98h-30.45L78.29,7.3h29.13c6.08,15.62,16.03,41.36,17.79,47.41h.42c1.11-5.95,10.33-31.83,15.98-47.41h30.11Z"/>
  <path class="cls-1" d="M250,106.44l-80.68,10.22-15.22-26.37,49.2-64.76,14.56,25.23c-10.48,13.07-27.79,34.55-32.16,39.11l.21.35c5.7-2.01,32.72-6.96,49.05-9.86l15.05,26.08Z"/>
  <path class="cls-1" d="M185.48,159.82l-.2.35c4.59,3.94,22.4,24.87,33.07,37.55l-15.05,26.08-49.2-64.76,15.22-26.37,80.68,10.22-14.56,25.23c-16.56-2.55-43.83-6.8-49.96-8.3Z"/>
</svg>
